<svg id="Layer_1" data-name="Layer 1" xmlns="http://www.w3.org/2000/svg" viewBox="0 0 1000 1000"><title>guitar</title><rect x="146.14" y="442.83" width="769.57" height="5.84" transform="translate(-159.99 502.47) rotate(-44.71)"/><rect x="158.93" y="457.42" width="769.57" height="5.84" transform="translate(-166.55 515.69) rotate(-44.71)"/><rect x="174.24" y="472.13" width="769.57" height="5.84" transform="translate(-172.47 530.72) rotate(-44.71)"/><path d="M393.08,607a65.27,65.27,0,0,1-8-11.07l-47.2,46.72,9.57,9.57Z"/><path d="M609,393.25a95.51,95.51,0,0,0,0-19L474.49,507.35a65.28,65.28,0,0,1,11,8.16Z"/><polygon points="316.44 682.83 306.88 673.26 268.44 711.31 278.01 720.88 316.44 682.83"/><path d="M946.32,129.76a13.49,13.49,0,0,0-4,.6l12.24-12.24a21.66,21.66,0,0,0,0-30.54L918.09,51.11a21.66,21.66,0,0,0-30.54,0L871.88,66.79a13.56,13.56,0,1,0-9.71,9.71L844.89,93.78a13.56,13.56,0,1,0-9.71,9.71l-20.73,20.73a13.52,13.52,0,1,0-7.56,7.56l-9.62,9.62a21.66,21.66,0,0,0-2.36,27.69L605,359a44,44,0,0,0-6.16-9.82c-6.13-7.45-15.12-13.89-27.51-20.66-21.77-11.89-48.29-15-72.2-15.72-60.14-1.78-109.81,30.58-132,86.26-8.62,21.64-18,45-41.1,54.63-30.21,12.54-64.42,7.75-96.17,11.5-68.62,8.12-130.73,41-160.78,104.6a246.33,246.33,0,0,0-20.2,143C56.24,759,78,802.33,105.93,839.46c28.83,38.3,67.12,69,110.29,89.68a321.08,321.08,0,0,0,67.51,23.48c44.57,10.14,82.66,7,124.88-9.37,24-9.3,46.55-21.93,66.37-38.36,21.83-18.1,42.7-47.88,55.1-73.25,15.07-30.85,9.44-72.94,12.26-106.18,2.3-27.11,12.54-68.4,46.79-68.54,34.65-.14,68.09-5.1,95.62-28.13,17.22-14.41,20.84-32.21,23.39-53.84,1.36-11.53,1-24.74-7.47-32.7-8.29-7.8-21.05-7.57-32.43-7.14-12.69.48-25.64.56-37.78-3.16-26.31-8.06-28.75-25-28.11-49.19q.46-17.41,1.59-34.79l235.5-235.5a21.66,21.66,0,0,0,24.84-4.06l11.89-11.89a13.53,13.53,0,1,0,10.71-10.71l19.56-19.56a13.48,13.48,0,1,0,8.9-8.9l18.09-18.09a13.5,13.5,0,1,0,12.89-9.5Zm-342,311.78c.15-2,.31-4.07.47-6.1L501.3,537.92a65.09,65.09,0,0,1-86,85.08l-48.81,48.31L381,685.74a17.75,17.75,0,0,1,0,25l-5.78,5.78a17.75,17.75,0,0,1-25,0L335.58,702l-38.43,38,3.77,3.77a21.65,21.65,0,0,1,0,30.54l-17,17a21.65,21.65,0,0,1-30.54,0l-39-39a21.65,21.65,0,0,1,0-30.54l17-17a21.66,21.66,0,0,1,30.54,0l2.41,2.41,38.43-38L290.6,657a17.75,17.75,0,0,1,0-25l5.78-5.78a17.75,17.75,0,0,1,25,0l12.3,12.3,48.52-48a65.08,65.08,0,0,1,86.86-86L607.76,367.21c-.32-1.32-.69-2.61-1.1-3.86l191-191,3.46,3.46.55-.54,4.11,4.15-.52.52,28.48,28.48a21.47,21.47,0,0,0,2,1.75Z"/><path d="M489.6,519.65a65.25,65.25,0,0,1,9,12.71l107-105.87q1.06-12,2.43-24Z"/><path d="M351.53,656.31l10.88,10.88,47.4-46.92a65.26,65.26,0,0,1-12.62-9.15Z"/><polygon points="282.14 725.01 293.01 735.88 331.45 697.84 320.57 686.96 282.14 725.01"/></svg>